<svg width="29" height="30" viewBox="0 0 29 30" fill="none" xmlns="http://www.w3.org/2000/svg">
<path fill-rule="evenodd" clip-rule="evenodd" d="M14.4652 0.923645C17.8641 0.923645 20.9828 2.08024 23.4433 4.01401L21.5898 7.89981C19.7596 6.13063 17.2431 5.0426 14.4699 5.0426C8.86263 5.0426 4.31988 9.49071 4.31988 14.9811C4.31988 19.347 7.19586 23.0545 11.1924 24.3894L9.62364 28.2157C4.08177 26.2683 0.113281 21.0796 0.113281 14.9811C0.113281 7.21866 6.53756 0.928217 14.4652 0.928217V0.923645Z" fill="white"/>
<path fill-rule="evenodd" clip-rule="evenodd" d="M26.3565 7.09979C27.9113 9.34441 28.8217 12.0599 28.8217 14.9765C28.8217 22.739 22.3974 29.0295 14.4698 29.0295C13.3493 29.0295 12.2568 28.9015 11.2109 28.6637L12.803 24.7779C13.3446 24.8648 13.9002 24.9105 14.4698 24.9105C20.077 24.9105 24.6198 20.4624 24.6198 14.972C24.6198 14.0348 24.4844 13.1251 24.2369 12.2656L26.3565 7.09521V7.09979Z" fill="white"/>
<path fill-rule="evenodd" clip-rule="evenodd" d="M19.5824 23.5573L17.4675 28.7186C16.8559 28.8466 16.2256 28.938 15.5859 28.9838C15.5953 28.9838 15.5999 28.9838 15.6093 28.9838L17.4581 24.4717C18.2098 24.2476 18.9195 23.9368 19.5871 23.5573H19.5824Z" fill="black" fill-opacity="0.14902"/>
<path fill-rule="evenodd" clip-rule="evenodd" d="M5.92555 26.2728C5.46334 25.9345 5.0198 25.5734 4.59961 25.1848L6.34107 20.9378C6.70057 21.4087 7.10209 21.843 7.53629 22.2453L5.89287 26.2545L5.92088 26.2774L5.92555 26.2728Z" fill="black" fill-opacity="0.14902"/>
<path fill-rule="evenodd" clip-rule="evenodd" d="M11.6364 12.2473L5.89844 26.25C7.02362 27.0728 8.27486 27.7357 9.62415 28.2066L9.88093 27.5803L16.1698 12.2473H11.6411H11.6364ZM15.6049 28.9838L17.4537 24.4716L23.0563 10.8073L25.1806 5.62318L26.8567 1.53622H22.384L22.328 1.5408L21.7817 2.87569L20.1897 6.76149L12.8036 24.7734L11.2115 28.6592C12.2574 28.8969 13.3405 29.0203 14.461 29.0249C14.5824 29.0249 14.7038 29.0249 14.8252 29.0203H14.8439C14.9559 29.0158 15.068 29.0112 15.18 29.0066L15.2314 29.002C15.3341 28.9975 15.4321 28.9883 15.5349 28.9838C15.5582 28.9838 15.5815 28.9792 15.6049 28.9792V28.9838Z" fill="white"/>
</svg>
